<svg xmlns="http://www.w3.org/2000/svg" viewBox="0 0 540 98" preserveAspectRatio="none">
  <defs>
    <linearGradient id="rg" x1="0" y1="0" x2="1" y2="0">
      <stop offset="0" stop-color="#39d7df"/>
      <stop offset=".2" stop-color="#e0aa43"/>
      <stop offset=".74" stop-color="#1a6c73"/>
      <stop offset="1" stop-color="#e6b24a"/>
    </linearGradient>
  </defs>
  <path d="M18 8H490L532 36V88H18L4 74V22Z" fill="none" stroke="#1b4b50" stroke-opacity=".72" stroke-width="1.4"/>
  <path d="M18 8H92M490 8L532 36M532 66V88H486M18 88L4 74V22" fill="none" stroke="url(#rg)" stroke-width="2"/>
  <path d="M28 18H116M148 18H214M374 18H496M416 80H522M28 80H72" fill="none" stroke="#e6b24a" stroke-opacity=".72" stroke-width="1.1"/>
  <path d="M16 20V54M24 16H48M504 14L526 34M506 82H526M34 26H132M402 28H500" fill="none" stroke="#f2cf82" stroke-opacity=".35" stroke-width="1"/>
  <path d="M18 8L34 24M490 8L502 20M532 88L516 72M18 88L34 72" fill="none" stroke="#39d7df" stroke-opacity=".4" stroke-width="1"/>
</svg>
