<svg xmlns="http://www.w3.org/2000/svg" viewBox="0 0 720 128" preserveAspectRatio="none">
  <defs>
    <linearGradient id="bg" x1="0" y1="0" x2="1" y2="0">
      <stop offset="0" stop-color="#35d8df"/>
      <stop offset=".26" stop-color="#e1aa43"/>
      <stop offset=".72" stop-color="#1a6f75"/>
      <stop offset="1" stop-color="#e6b24a"/>
    </linearGradient>
  </defs>
  <path d="M18 10H666L710 48V104L686 126H18L2 110V26Z" fill="none" stroke="#1b6e73" stroke-opacity=".84" stroke-width="1.5"/>
  <path d="M18 10H96M666 10L710 48M710 86V104L686 126H628M18 126L2 110V26" fill="none" stroke="url(#bg)" stroke-width="2.1"/>
  <path d="M32 24H92M122 24H214M610 24H676M640 112H694M696 58V96M20 38V84" fill="none" stroke="#e6b24a" stroke-opacity=".72" stroke-width="1.1"/>
  <path d="M28 20H74M660 18L700 56M628 120H680M38 116H112" fill="none" stroke="#d6fff9" stroke-opacity=".34" stroke-width="1"/>
  <path d="M18 10L34 26M666 10L684 28M686 126L666 108M18 126L36 108" fill="none" stroke="#35d8df" stroke-opacity=".44" stroke-width="1"/>
</svg>
